HIERARCHY
ROOT Hips
{
  OFFSET -35.2597 29.1586 114.425
  CHANNELS 6 Xposition Yposition Zposition Zrotation Xrotation Yrotation
  JOINT LeftUpLeg
  {
    OFFSET 8.64259 1.95398 -2.38835
    CHANNELS 3 Zrotation Xrotation Yrotation
    JOINT LeftLeg
    {
      OFFSET 43.7702 0 0
      CHANNELS 3 Zrotation Xrotation Yrotation
      JOINT LeftFoot
      {
        OFFSET 40.6238 0 0
        CHANNELS 3 Zrotation Xrotation Yrotation
        JOINT LeftToeBase
        {
          OFFSET 12.7242 0 0
          CHANNELS 3 Zrotation Xrotation Yrotation
          End Site
          {
            OFFSET 0 0 0
          }
        }
      }
    }
  }
  JOINT RightUpLeg
  {
    OFFSET -8.2249 1.95398 -2.59336
    CHANNELS 3 Zrotation Xrotation Yrotation
    JOINT RightLeg
    {
      OFFSET 43.5653 0 0
      CHANNELS 3 Zrotation Xrotation Yrotation
      JOINT RightFoot
      {
        OFFSET 40.6238 0 0
        CHANNELS 3 Zrotation Xrotation Yrotation
        JOINT RightToeBase
        {
          OFFSET 12.7242 0 0
          CHANNELS 3 Zrotation Xrotation Yrotation
          End Site
          {
            OFFSET 0 0 0
          }
        }
      }
    }
  }
  JOINT Spine
  {
    OFFSET 0.165834 0.87714 6.61349
    CHANNELS 3 Zrotation Xrotation Yrotation
    JOINT Spine1
    {
      OFFSET 7.38963 1.71661e-005 0
      CHANNELS 3 Zrotation Xrotation Yrotation
      JOINT Spine2
      {
        OFFSET 11.9445 1.14441e-005 0
        CHANNELS 3 Zrotation Xrotation Yrotation
        JOINT Spine3
        {
          OFFSET 14.7254 4.19617e-005 0
          CHANNELS 3 Zrotation Xrotation Yrotation
          JOINT Spine4
          {
            OFFSET 10.9679 0 0
            CHANNELS 3 Zrotation Xrotation Yrotation
            JOINT RightShoulder
            {
              OFFSET 2.46616 -1.6653 3.69651
              CHANNELS 3 Zrotation Xrotation Yrotation
              JOINT RightArm
              {
                OFFSET 13.0012 0 0
                CHANNELS 3 Zrotation Xrotation Yrotation
                JOINT RightForeArm
                {
                  OFFSET 28.7848 1.62311e-005 0
                  CHANNELS 3 Zrotation Xrotation Yrotation
                  JOINT RightHand
                  {
                    OFFSET 26.5688 1.62095e-005 0
                    CHANNELS 3 Zrotation Xrotation Yrotation
                    End Site
                    {
                      OFFSET 0 0 0
                    }
                  }
                }
              }
            }
            JOINT LeftShoulder
            {
              OFFSET 2.38034 -1.29275 -3.7523
              CHANNELS 3 Zrotation Xrotation Yrotation
              JOINT LeftArm
              {
                OFFSET 16.3182 6.07031e-005 0
                CHANNELS 3 Zrotation Xrotation Yrotation
                JOINT LeftForeArm
                {
                  OFFSET 27.0901 0 0
                  CHANNELS 3 Zrotation Xrotation Yrotation
                  JOINT LeftHand
                  {
                    OFFSET 24.5451 1.51738e-005 0
                    CHANNELS 3 Zrotation Xrotation Yrotation
                    End Site
                    {
                      OFFSET 0 0 0
                    }
                  }
                }
              }
            }
            JOINT Neck
            {
              OFFSET 5.0226 -0.0266342 0
              CHANNELS 3 Zrotation Xrotation Yrotation
              JOINT Head
              {
                OFFSET 6.69364 2.86102e-005 0
                CHANNELS 3 Zrotation Xrotation Yrotation
                End Site
                {
                  OFFSET 0 0 0
                }
              }
            }
          }
        }
      }
    }
  }
}
MOTION
Frames:	18
Frame Time:	0.0416667
-212.513 95.8456 182.263 -101.763 -44.6787 -102.042 -175.271 3.32998 84.4461 -26.4377 9.27133 -1.74047 75.589 9.72822 -1.70504 13.2195 -14.4987 8.6169 172.86 15.267 85.4985 -54.5444 -12.2459 -2.00967 66.1548 -4.1037 -1.72199 26.8433 0.269787 1.76481 0.934821 8.46374 -89.9066 9.94712 1.9056 0.0298359 -1.72242 1.90506 -0.0541026 -24.268 1.80849 0.601347 -4.25532 1.80851 0.601352 93.6937 -31.5806 -98.9451 44.6349 7.19596 -3.92303 -5.83461 -48.9834 -5.79416 -20.5633 2.26144 -18.0545 -85.7293 -58.2889 86.2335 -16.3807 -16.5854 1.88942 2.98438 27.1983 -4.04918 1.17444 -0.452944 -16.0351 -5.17935 -2.58255 -3.01709 -0.0225428 -2.32959 -5.7989 
-209.787 95.4163 178.282 -101.665 -46.3103 -102.852 -175.213 7.7278 84.1754 -27.5957 12.5236 -2.27964 72.927 8.69296 0.557488 11.7374 -14.9427 7.8303 172.87 5.52169 83.889 -58.3583 -18.0564 -3.89049 65.3294 -3.50165 -0.945988 25.3788 0.780348 2.00621 1.19033 8.24855 -89.6038 10.3723 2.55282 0.56397 -1.29621 2.57519 0.450986 -23.8472 2.26526 1.30546 -3.83451 2.26527 1.30546 88.4318 -33.144 -108.586 40.769 9.12955 -2.2518 -5.4349 -43.9299 -5.53197 -24.543 3.37883 -21.1054 -85.4737 -59.0149 86.6712 -16.9679 -16.3447 6.16419 2.67507 17.5692 -3.7299 3.6326 -0.552922 -13.3369 -5.65083 -4.23399 -3.41814 0.388912 -3.98683 -7.5407 
-206.439 94.5546 173.167 -100.114 -47.8266 -102.025 -175.524 14.7007 84.0675 -29.7734 13.2677 -2.1833 69.1099 6.05742 0.664748 11.6506 -14.5137 7.19491 173.451 -4.0095 84.5561 -48.0639 -22.7111 -5.4435 68.3681 -5.99592 -3.07205 30.2152 -1.92989 5.00011 1.35524 8.0543 -89.3436 10.7527 3.00139 1.02853 -0.91514 3.04373 0.895329 -23.4684 2.55349 1.88343 -3.45577 2.55349 1.88342 88.439 -32.4662 -108.822 41.4241 7.95163 -6.4016 -5.35096 -42.748 -5.48042 -26.0817 4.11651 -23.2615 -84.5474 -59.176 87.9508 -16.8242 -16.3742 6.66727 2.64898 16.6828 -3.69954 -1.18776 -0.226123 -18.149 -4.56891 -5.33619 -4.07474 0.22828 -4.9807 -8.88672 
-201.657 93.8949 165.946 -96.9345 -47.6657 -99.0106 -176.34 21.4397 85.2428 -26.4752 13.6552 -1.8142 61.878 0.863287 -0.114881 10.1208 -15.3655 6.9177 174.578 -8.11996 87.2113 -32.9941 -20.2409 -5.4418 76.3638 -12.4418 -4.98153 37.0823 -4.22207 3.69189 1.75239 7.95682 -89.3463 10.9459 3.79142 0.942395 -0.7197 3.82922 0.774379 -23.2881 3.33278 2.03934 -3.27548 3.33276 2.03933 88.3698 -30.9783 -109.563 41.1615 7.28645 -9.81125 -5.31999 -42.3006 -5.46221 -28.2256 5.02477 -25.439 -84.5718 -62.9856 88.3025 -12.8585 -17.6536 2.29213 2.78647 21.3671 -3.84349 -1.70541 -0.19669 -20.9998 -3.45224 -6.40015 -1.7124 1.49744 -6.39531 -11.5033 
-196.569 94.227 158.492 -96.26 -50.4338 -95.8326 -176.956 22.7207 87.4984 -18.4947 10.2474 -1.32097 64.0386 2.85119 0.543089 8.21748 -16.7008 6.90294 174.743 -5.08486 90.2797 -27.7231 -18.9532 -2.58304 79.7897 -14.3775 -3.48948 31.9191 -1.88348 2.1554 1.49487 8.12493 -89.7628 10.6243 3.08638 0.191996 -1.04296 3.09183 0.055837 -23.6046 2.88586 1.11147 -3.59196 2.88588 1.11148 88.2947 -29.9412 -110.146 39.3104 7.47438 -13.0069 -5.59818 -46.0972 -5.63537 -26.8151 5.18942 -27.2467 -84.6672 -65.7668 88.4439 -10.6508 -18.7228 -3.31788 2.9347 25.8441 -3.99663 0.339616 -0.390013 -16.9704 -0.182721 -6.13681 1.01364 1.24224 -6.41233 -11.362 
-193.425 95.9079 152.283 -97.6752 -55.0766 -97.5352 -175.801 21.4772 86.9075 -20.2633 -1.30729 -1.97047 64.5688 3.34441 -0.614558 15.5041 -14.5777 10.9454 175.51 -1.83782 91.8977 -25.6633 -14.8938 -1.76926 76.1635 -11.0755 -3.29446 27.3875 -0.367237 3.128 0.880518 8.1665 -89.8204 10.5399 1.83636 0.192696 -1.1297 1.84306 0.111651 -23.674 1.69353 0.735848 -3.66138 1.69352 0.73584 88.8204 -31.0832 -108.647 39.8732 7.59799 -11.1942 -5.40754 -43.5517 -5.5147 -26.9909 4.66485 -24.9375 -86.2908 -62.5448 85.9932 -13.4293 -17.8056 -4.86199 2.98076 27.134 -4.04432 1.13041 -0.401252 -14.1317 -0.873027 -5.43792 -0.323712 0.996191 -5.48202 -8.8571 
-191.066 96.8931 147.431 -99.0193 -57.7353 -99.3501 -174.903 20.8509 88.2823 -36.1166 7.8157 -0.740533 67.983 5.64949 -0.0608579 11.7862 -14.1237 6.78788 175.219 0.104801 91.8355 -23.2451 -13.5463 -0.977379 73.0322 -8.16678 -1.83038 25.7781 0.559011 2.2156 0.449987 8.0914 -89.8021 10.6906 0.987357 0.302445 -0.979981 0.999696 0.258693 -23.5174 0.850796 0.585224 -3.5048 0.850793 0.585215 89.6215 -32.6473 -106.507 41.7309 7.96708 -5.73914 -5.28838 -41.8381 -5.44342 -28.5756 4.78231 -24.2427 -86.2485 -57.6434 85.4384 -18.3009 -16.0124 -8.97785 3.09423 30.1058 -4.16023 1.79406 -0.295919 -10.2087 -0.493474 -4.86126 -2.83723 0.121531 -4.46392 -4.82573 
-188.529 97.0463 143.475 -99.3384 -58.4447 -99.0859 -175.402 16.9852 91.3273 -50.553 13.3793 2.14563 70.6663 7.24847 -0.324895 13.7855 -13.6648 8.03131 175.313 3.53795 92.4387 -23.8275 -13.2884 -0.3915 71.1407 -6.99453 -1.77323 24.8482 0.840649 2.51406 0.004725 7.93688 -89.9904 10.999 0.0139573 0.0189056 -0.671956 0.0147563 0.018267 -23.207 0.0076194 0.0222235 -3.19432 0.0076205 0.0222227 90.1597 -33.0942 -105.323 43.299 8.66843 -0.0503975 -5.45687 -44.231 -5.54501 -26.1409 3.94855 -22.5235 -86.1145 -56.5126 85.4727 -20.6024 -14.9862 -12.7029 3.15713 31.6209 -4.22465 4.0821 -0.602001 -13.4255 -0.42595 -3.26728 -3.01691 -0.241248 -2.82921 -1.90548 
-185.729 96.8281 140.232 -102.054 -58.8213 -99.4997 -175.909 8.47997 95.7431 -56.4008 20.0029 5.14551 69.376 6.61682 -0.0229382 15.0647 -12.0119 6.94766 175.584 5.39633 93.5635 -24.4249 -12.9989 0.327537 69.2922 -5.73991 -1.91181 24.9081 0.895286 2.27743 -0.457843 7.89676 -90.3496 11.0775 -1.07345 -0.59201 -0.593118 -1.09846 -0.5442 -23.1296 -0.845905 -0.887264 -3.11696 -0.845905 -0.887267 90.085 -33.8816 -105.195 44.5504 9.60197 5.67238 -5.20212 -40.5459 -5.39332 -23.2939 2.83767 -19.3097 -86.0206 -55.7653 85.5066 -23.8008 -13.3305 -16.2445 3.15287 31.5814 -4.21893 5.08057 -0.903179 -16.7985 -1.80954 -1.44823 -1.87314 -0.320226 -1.20007 0.00428809 
-182.087 96.216 137.105 -103.219 -59.1988 -99.1745 -174.816 0.248189 98.4268 -53.865 29.9186 6.94831 66.3721 4.63817 -0.830181 15.3885 -10.9258 5.72323 176.035 9.0017 94.1475 -26.4136 -12.1158 0.382795 67.5474 -4.31862 -1.44755 24.3942 0.989034 2.62208 -0.776447 7.88239 -90.6314 11.1014 -1.83862 -1.0787 -0.568586 -1.88428 -0.996722 -23.1072 -1.42946 -1.58142 -3.09456 -1.42945 -1.58142 90.0301 -34.9725 -104.929 44.101 10.5991 9.38142 -4.9332 -36.1987 -5.25009 -18.4928 2.04212 -18.2703 -85.6782 -54.7659 85.8627 -26.932 -11.3039 -21.3727 3.30919 35.07 -4.37883 3.67337 -0.900981 -19.5526 -2.22951 -0.159561 -0.82025 -1.18391 -0.0614581 1.51268 
-176.935 95.4774 133.151 -103.167 -60.105 -98.8157 -173.056 -5.13052 98.8279 -45.0468 35.5832 6.45178 69.0858 6.96928 -0.0262254 25.0967 -5.79934 7.05651 176.066 13.7752 93.1218 -27.1506 -12.2152 0.197428 64.3701 -1.93264 -1.21393 23.2119 1.21256 3.34001 -1.03325 7.93295 -90.8866 10.9893 -2.46754 -1.52859 -0.680067 -2.53242 -1.41848 -23.2202 -1.89415 -2.19951 -3.20751 -1.89416 -2.19952 90.8942 -34.467 -103.489 43.3391 10.7446 9.10808 -5.03377 -37.8807 -5.3015 -16.4481 2.12279 -20.4549 -86.3468 -55.572 85.0179 -28.8254 -9.65215 -26.1841 3.42034 37.3772 -4.49206 5.06921 -1.18611 -21.0914 -1.93463 0.577464 0.859023 -1.58116 0.456131 2.26162 
-170.112 94.4471 127.722 -100.394 -62.3522 -97.1256 -173.769 -5.35959 96.5866 -35.7077 32.3033 4.88635 79.9637 14.7555 -1.34578 32.2959 -3.89979 12.0635 176.246 19.7593 90.5723 -24.516 -12.2506 -0.39745 58.7907 2.31016 0.279953 23.1136 1.29454 3.22867 -1.25999 7.96664 -90.8639 10.9206 -2.90809 -1.44409 -0.747789 -2.96885 -1.31463 -23.2949 -2.33972 -2.2515 -3.28222 -2.33971 -2.2515 90.5772 -36.1368 -103.553 40.9221 10.667 5.39918 -4.88999 -35.4545 -5.22874 -16.5308 2.97312 -26.0481 -86.3904 -52.544 84.5254 -31.2637 -7.50478 -30.1874 3.6236 41.0674 -4.69597 3.92394 -1.05172 -21.7133 -1.32269 0.483694 -1.43227 -1.55287 0.648605 3.54477 
-163.408 94.54 122.116 -97.8485 -59.8529 -97.8071 -175.477 -1.72153 90.6436 -33.4525 27.1331 2.57754 84.6525 17.42 -3.04826 23.9759 -7.76446 9.37732 176.799 22.0058 87.2555 -18.0829 -12.0905 -1.84609 61.1713 0.782501 -0.783984 24.4458 0.698773 3.41787 -0.899371 8.02541 -90.5026 10.8162 -2.02283 -0.811239 -0.853366 -2.05656 -0.721409 -23.3959 -1.68549 -1.38177 -3.38325 -1.68549 -1.38178 90.3778 -37.6986 -103.439 40.0508 10.0422 0.912774 -5.11729 -39.2249 -5.34618 -26.8017 3.5683 -20.4647 -86.4951 -52.5876 84.3792 -30.8287 -7.75854 -30.4729 3.8818 45.147 -4.95735 4.32689 -1.00354 -19.8743 -2.08575 0.0493924 -3.43225 -2.7506 0.406317 4.04418 
-157.792 95.9327 117.844 -95.1394 -53.0234 -95.4835 -174.969 1.51706 88.1067 -29.1927 21.7751 0.13572 80.6151 13.6795 -4.79044 21.9755 -9.73746 10.4363 176.093 20.3388 88.4511 -12.6319 1.00709 -0.314045 68.3706 -4.38819 -2.45861 19.499 3.21028 2.08817 -0.157909 8.0104 -90.3558 10.8509 -0.47871 -0.663053 -0.820066 -0.507445 -0.641333 -23.3541 -0.257324 -0.776268 -3.34146 -0.257326 -0.77627 89.2099 -35.8198 -106.15 41.5894 9.00042 -1.39643 -4.78493 -33.5843 -5.17716 -26.1038 3.43747 -20.345 -85.9109 -54.3013 85.4674 -27.8923 -10.5873 -22.8343 3.54875 39.7814 -4.62172 3.54418 -0.758825 -17.2417 -4.00143 1.32742 -1.92655 -4.0807 1.46027 2.258 
-153.049 97.2323 114.66 -93.8394 -46.9361 -93.5699 -175.336 2.20429 86.7683 -22.8893 17.0926 -0.673983 77.1225 12.0776 -2.14689 17.3328 -11.5694 8.534 174.692 21.4616 89.6084 -27.2304 1.27332 1.11191 66.553 -3.25983 -1.79809 20.4918 2.28046 3.42564 0.440384 7.9981 -90.2133 10.8795 0.778287 -0.496774 -0.791291 0.75568 -0.530558 -23.3282 0.891626 -0.239881 -3.31551 0.891607 -0.239899 88.2804 -34.3778 -108.376 41.2404 8.5514 -4.05027 -5.30802 -42.1252 -5.45549 -22.6237 3.24666 -21.8219 -85.3277 -55.7859 86.4893 -22.9917 -13.9092 -12.648 3.2456 33.6883 -4.31359 1.94435 -0.477657 -14.8834 -4.60477 3.29426 0.375482 -5.93829 3.21127 0.762582 
-149.45 97.7903 111.763 -93.8379 -44.7738 -93.8167 -175.345 4.3949 86.0125 -21.4091 15.3552 -1.46318 74.037 9.70787 -1.43327 17.8264 -9.97317 6.59779 174.788 18.04 88.8302 -42.7338 -6.69791 -1.1339 67.4068 -4.47697 -2.33143 22.01 1.43844 4.05862 0.801612 7.96234 -89.9899 10.9507 1.60058 -0.132011 -0.719293 1.59322 -0.202347 -23.2621 1.56625 0.35526 -3.24949 1.56623 0.355256 88.3449 -32.9863 -108.796 42.9385 7.40497 -5.93664 -5.44681 -44.0909 -5.53911 -25.4312 3.87025 -22.6659 -85.2283 -57.5794 86.8408 -18.7339 -15.8376 -4.5684 3.16205 31.3746 -4.24645 2.03709 -0.347025 -10.9708 -6.83138 3.26383 1.81327 -5.14908 3.20451 -2.4979 
-146.249 97.5597 108.602 -94.3961 -45.0573 -95.4628 -175.593 7.88814 85.0569 -22.2531 15.9832 -2.11928 70.6158 6.74138 -2.31711 18.2889 -10.1301 7.29222 173.635 11.1753 86.7641 -51.27 -8.75439 -2.26748 66.3595 -4.01222 -1.86629 23.2637 1.26048 3.15826 1.12091 7.9162 -89.6828 11.0389 2.37839 0.402745 -0.629909 2.39385 0.297608 -23.1794 2.14738 1.09924 -3.1668 2.14736 1.09922 88.0211 -32.6543 -109.539 43.6615 7.07281 -6.02705 -5.43422 -43.9212 -5.53111 -26.5125 4.40538 -24.2029 -84.8887 -58.509 87.4146 -17.1303 -16.3759 0.207777 2.99383 27.543 -4.05387 2.38812 -0.386128 -11.4718 -8.22391 1.83861 0.0290671 -5.48781 1.96836 -3.38687 
-142.941 97.0705 104.868 -95.8404 -45.0282 -98.4172 -176.06 10.9937 83.2222 -23.9234 15.3261 -2.57437 69.33 5.63747 -1.47136 14.9345 -11.0782 5.50644 172.862 3.17108 84.3313 -52.5293 -17.6774 -3.95281 65.2593 -3.67233 -2.07671 24.3127 0.655614 3.68642 1.42982 8.01155 -89.3816 10.8397 3.13266 0.937329 -0.827716 3.17085 0.798419 -23.3841 2.70607 1.836 -3.37146 2.70608 1.836 88.0959 -31.9659 -109.678 43.6341 6.90643 -6.73205 -5.62346 -46.4261 -5.65196 -25.1411 4.22175 -24.4626 -84.6643 -60.0115 87.8804 -17.2227 -16.3331 1.17233 2.83586 22.9157 -3.89442 1.93819 -0.446242 -13.9234 -10.6479 0.309699 -0.28773 -4.13714 0.491541 -6.20098 
